<svg id="Layer_1" data-name="Layer 1" xmlns="http://www.w3.org/2000/svg" viewBox="0 0 368.16 115.28"><title>logocircle</title><path d="M351.55,21.53,289.55,127l-62-105.52Zm-114.1,5.62,52.09,88.2,52-88.2Z" transform="translate(-4.35 -12.14)"/><path d="M237.45,27.15h104.1l-52,88.2Zm79.68,31.3c-16.66-20.19-42.35-17-54.89.12C277,76.81,301.07,76.84,317.13,58.45Z" transform="translate(-4.35 -12.14)" style="fill:#fff"/><path d="M317.13,58.45c-16.06,18.39-40.11,18.36-54.89.12C274.78,41.45,300.46,38.26,317.13,58.45Zm-52.19.11c13.72,16.55,37.21,16.41,49.17-.29C301,41.7,276.67,41.84,264.94,58.56Z" transform="translate(-4.35 -12.14)"/><path d="M264.94,58.56c11.74-16.72,36.08-16.87,49.17-.29C302.15,75,278.65,75.15,264.94,58.56ZM289.63,70a11.85,11.85,0,0,0,11.94-11.58,12.21,12.21,0,0,0-11.84-11.83c-6.38-.11-12.29,5.57-12.19,12A11.85,11.85,0,0,0,289.62,70Z" transform="translate(-4.35 -12.14)" style="fill:#fff"/><path d="M289.62,70a11.85,11.85,0,0,1-12.09-11.43c-.1-6.41,5.68-12.09,12.19-12a12.09,12.09,0,0,1,11.84,11.83A11.85,11.85,0,0,1,289.62,70Zm-.08-1.62c6.27-.08,10.57-4.29,10.45-10.24s-4.59-9.84-11-9.69A9.78,9.78,0,0,0,279,58q0,.31,0,.61c.18,5.75,4.52,9.78,10.5,9.7Z" transform="translate(-4.35 -12.14)"/><path d="M289.55,68.35c-6,.07-10.32-4-10.46-9.71a9.78,9.78,0,0,1,9.33-10.21H289c6.37-.15,10.85,3.81,11,9.69S295.82,68.28,289.55,68.35Zm-1.27-3.77c5.84-.44,8.55-2.77,8-6.75S293,52.06,289,52.21c-4.14.15-5.93,2.35-5.7,7.17C288.07,57.84,289.22,60.07,288.28,64.58Z" transform="translate(-4.35 -12.14)" style="fill:#fff"/><path d="M288.28,64.58c1-4.51-.19-6.73-4.94-5.2-.23-4.82,1.56-7,5.7-7.17s6.66,1.53,7.23,5.62S294.1,64.15,288.28,64.58Z" transform="translate(-4.35 -12.14)"/><text transform="translate(320.93 75.04)" style="isolation:isolate;font-size:24px;font-family:MyriadPro-Regular, Myriad Pro">ision</text><text transform="translate(167.93 77.04)" style="isolation:isolate;font-size:24px;font-family:MyriadPro-Regular, Myriad Pro">c</text><text transform="translate(178.68 77.04)" style="isolation:isolate;font-size:24px;font-family:MyriadPro-Regular, Myriad Pro;letter-spacing:-0.010009765625em">C</text><text transform="translate(192.43 77.04)" style="isolation:isolate;font-size:24px;font-family:MyriadPro-Regular, Myriad Pro">a</text><text transform="translate(204 77.04)" style="isolation:isolate;font-size:24px;font-family:MyriadPro-Regular, Myriad Pro;letter-spacing:0.02001953125em">r</text><text transform="translate(212.43 77.04)" style="isolation:isolate;font-size:24px;font-family:MyriadPro-Regular, Myriad Pro">t</text><text transform="translate(220.37 77.04)" style="isolation:isolate;font-size:24px;font-family:MyriadPro-Regular, Myriad Pro;letter-spacing:-0.010009765625em">h</text><text transform="translate(233.38 77.04)" style="isolation:isolate;font-size:24px;font-family:MyriadPro-Regular, Myriad Pro">y</text><polygon points="185.43 112.17 62.92 112.28 124.27 6 185.43 112.17" style="fill:none;stroke:#000;stroke-miterlimit:10;stroke-width:6px"/><polygon points="127.71 112.17 5.2 112.28 66.55 6 127.71 112.17" style="fill:none;stroke:#000;stroke-miterlimit:10;stroke-width:6px"/> shape-rendering="geometricPrecision" </svg>